<?xml version="1.0" encoding="UTF-8"?>
<svg id="Capa_2" data-name="Capa 2" xmlns="http://www.w3.org/2000/svg" viewBox="0 0 202.06 181.78">
  <defs>
    <style>
      .cls-1 {
        fill: #d7c9a3;
      }

      .cls-2 {
        fill: #006d60;
      }

      .cls-3 {
        fill: #006d61;
      }

      .cls-4 {
        fill: #235b4e;
      }

      .cls-5 {
        fill: #b39850;
      }
    </style>
  </defs>
  <g id="TEXTO">
    <g>
      <g>
        <path class="cls-2" d="M105.43,46.67c-.08-.03-.16-.06-.24-.1-.4-.18-1.01-.44-1.78-.46-1.38-.02-2.76-.02-4.14-.02-1.27,0-2.55,0-3.82-.01-1.63,0-3,.7-3.92,2.07-.77,1.15-1.67,2.51-2.52,3.87-.44.7-.73,1.41-.86,2.12-.51,2.72-2.14,4.49-5.11,5.57-3.02,1.1-6.07,1.39-9.09.86-2.18-.38-3.91-1.57-5.29-3.63-.47-.7-.89-1.48-1.25-2.3-.51-1.18-1.89-1.72-3.07-1.21-1.18.51-1.72,1.89-1.21,3.07.47,1.08,1.03,2.1,1.65,3.03,2.1,3.13,4.91,5.02,8.36,5.62,3.82.67,7.69.31,11.48-1.07,4.48-1.63,7.28-4.77,8.1-9.09.02-.09.09-.27.23-.51.81-1.29,1.67-2.59,2.45-3.76,1.29.02,2.57.02,3.86.01.9,0,1.81,0,2.71,0-.28,1.01-.56,2.05-.8,3.11-.14.63-.4,1.1-.85,1.55-1.74,1.72-3.46,3.45-5.19,5.18-1.78,1.79-3.57,3.58-5.36,5.36-1.23,1.22-1.63,2.68-1.17,4.12-.7,0-1.4,0-2.1-.02-1.67,0-3.11.53-4.25,1.67-.37.37-.78.71-1.21,1.08l-.93-.55c-1.79-1.06-3.57-2.12-5.34-3.21-1.44-.89-2.94-1.14-4.6-.79-2.17.47-4.35.92-6.53,1.38-2.69.56-5.39,1.12-8.07,1.72-.5.11-.75.06-1.16-.23-5.11-3.61-10.31-7.25-15.46-10.83-.42-.29-.62-.57-.75-1.04-.88-3.21-1.82-6.48-2.86-10-.24-.81-.59-1.86-1.23-2.82-3.43-5.22-6.88-10.44-10.33-15.65-2.16-3.26-4.31-6.52-6.47-9.78-1.12-1.7-2.68-2.49-4.62-2.37-.68.05-2.29.16-3.14,1.53-.86,1.38-.24,2.88-.01,3.44,3.52,8.63,7.03,17.26,10.56,25.9l-.93-1.55c-2.33-3.89-4.65-7.78-7-11.65-.5-.83-1.14-1.64-1.9-2.39-.8-.79-1.6-1.58-2.41-2.36.42-.18.83-.47,1.17-.91.96-1.25.55-2.77.38-3.43l-.53-1.99c-.93-3.48-1.86-6.96-2.8-10.44-.32-1.17-.66-2.34-1-3.51h6.72c.52.11,1.03.51,1.74,1.09,1.98,1.62,3.92,3.19,5.91,4.66.87.64,2.05,1.07,3.24,1.16,1.11.09,2.19.07,3.24.05.38,0,.77-.01,1.15-.01h.27c1.05,0,2.04,0,2.88-.85.81-.83.79-1.82.77-2.47,0-.04,0-.09,0-.14.8,0,1.61,0,2.41,0,1.16,0,2.33,0,3.49,0,.18,0,.19,0,.36.21.85,1.08,1.72,2.15,2.59,3.22.9,1.1,1.79,2.21,2.67,3.32.95,1.22,2.2,1.83,3.7,1.8.01,0,.02,0,.03,0,.03,0,.05,0,.08,0,.71-.02,1.41-.02,2.12-.01.7,0,1.4.01,2.09,0,1.29-.03,2.3-1.1,2.27-2.39-.04-1.29-1.1-2.33-2.39-2.27-.64.01-1.29,0-1.93,0-.76,0-1.51,0-2.27.01,0,0-.01,0-.02,0,0,0,0-.01-.01-.02-.89-1.14-1.81-2.26-2.72-3.38-.86-1.05-1.71-2.11-2.55-3.17-1.04-1.32-2.39-1.98-4.01-1.98h-.06c-1.14.01-2.29.01-3.43,0-.97,0-1.94,0-2.91,0-2.41.02-3.85,1.24-4.13,3.46-.17,0-.35,0-.52,0-.98.02-1.91.03-2.8-.04-.35-.03-.69-.15-.83-.26-1.91-1.41-3.73-2.89-5.73-4.52-.96-.78-2.27-1.85-4.17-2.11-.11-.01-.21-.02-.32-.02H2.33c-1.29,0-2.33,1.04-2.33,2.33v1.25c0,.22.03.44.09.65l.48,1.65c.34,1.17.68,2.34,1,3.52.94,3.47,1.87,6.94,2.8,10.42l.21.8h-2.06c-.92,0-1.76.54-2.13,1.39-.37.84-.21,1.83.41,2.51l.29.32c.21.23.36.41.53.56.59.57,1.19,1.15,1.79,1.72,1.2,1.15,2.4,2.31,3.58,3.49.48.48.89,1,1.2,1.5,2.34,3.87,4.66,7.75,6.99,11.64l2.15,3.6c1.39,2.32,2.88,2.75,5.3,1.55,3.27-1.62,3.76-2.91,2.38-6.3-2.88-7.06-5.76-14.12-8.64-21.19,1.18,1.78,2.35,3.55,3.53,5.33,3.45,5.21,6.89,10.42,10.33,15.64.3.46.52,1.12.65,1.58,1.03,3.49,1.96,6.73,2.83,9.91.42,1.52,1.26,2.71,2.58,3.63,5.14,3.57,10.34,7.21,15.44,10.81,1.49,1.05,3.08,1.37,4.86.98,2.67-.59,5.34-1.15,8.02-1.7,2.19-.46,4.37-.91,6.56-1.38.48-.1.76-.05,1.17.2,1.79,1.1,3.6,2.18,5.41,3.25l2.13,1.27c.36.21.77.33,1.19.33h.36c.55,0,1.09-.2,1.51-.56.24-.21.49-.41.73-.61.62-.51,1.27-1.04,1.88-1.66.22-.22.41-.33.88-.32,1.54.03,3.09.02,4.53,0,.5,0,2.03-.02,2.87-1.35.56-.88.56-1.95,0-3.16l-.06-.13c-.15-.32-.31-.66-.5-1.03,1.73-1.71,3.45-3.44,5.17-5.16,1.72-1.73,3.44-3.45,5.17-5.17,1.08-1.08,1.77-2.32,2.11-3.81.24-1.04.52-2.07.82-3.16.13-.46.25-.92.38-1.39.05-.2.08-.4.08-.6v-.89c0-1-.63-1.88-1.57-2.21"/>
        <path class="cls-1" d="M54.28,57.33c-1.29,0-2.33-1.04-2.33-2.33s1.04-2.33,2.33-2.33c4.82,0,8.97-3.59,9.63-8.36.18-1.27,1.36-2.16,2.63-1.99,1.27.18,2.16,1.36,1.98,2.63-.99,7.06-7.12,12.38-14.25,12.38"/>
        <path class="cls-5" d="M57.92,33.5c-.6,0-1.19-.23-1.65-.68-.91-.91-.91-2.39,0-3.3l6.1-6.1c3.91-3.91,10.26-3.91,14.17,0,.91.91.91,2.39,0,3.3-.91.91-2.39.91-3.3,0-2.09-2.09-5.49-2.09-7.58,0l-6.1,6.1c-.46.45-1.05.68-1.65.68"/>
        <path class="cls-5" d="M45.89,36.23h-.01c-1.29,0-2.33-1.05-2.32-2.34,0-1.64.65-3.18,1.81-4.34l21.65-21.65c2.61-2.61,6.08-4.05,9.77-4.05h27.88c1.29,0,2.33,1.04,2.33,2.33s-1.04,2.33-2.33,2.33h-27.88c-2.44,0-4.74.95-6.47,2.68l-21.65,21.65c-.28.28-.44.66-.45,1.06,0,1.28-1.05,2.32-2.33,2.32"/>
        <path class="cls-1" d="M43,41c-.27,0-.55-.05-.82-.15-1.2-.45-1.81-1.8-1.36-3,2.1-5.56,7.52-9.3,13.46-9.3,4.79,0,9.25,2.37,11.93,6.34.72,1.07.44,2.52-.63,3.24-1.07.72-2.51.44-3.24-.63-1.82-2.69-4.83-4.29-8.07-4.29-4.02,0-7.68,2.53-9.1,6.29-.35.93-1.24,1.51-2.18,1.51"/>
        <path class="cls-5" d="M55.74,59.77c-.74,0-1.47-.35-1.92-1.01l-14.75-21.46c-.73-1.06-.46-2.51.6-3.24,1.06-.73,2.51-.46,3.24.6l14.76,21.46c.73,1.06.46,2.51-.6,3.24-.4.28-.86.41-1.32.41"/>
        <path class="cls-5" d="M112.37,35.43c-5.53,0-10.03-4.5-10.03-10.02V2.33c0-1.29,1.04-2.33,2.33-2.33h7.69c1.29,0,2.33,1.04,2.33,2.33s-1.04,2.33-2.33,2.33h-5.36v20.74c0,2.96,2.4,5.36,5.36,5.36,1.29,0,2.33,1.04,2.33,2.33s-1.04,2.33-2.33,2.33"/>
        <path class="cls-5" d="M66.22,46.96c-.6,0-1.19-.23-1.65-.68-3.91-3.91-3.91-10.27,0-14.18l10.41-10.41c.28-.28.44-.67.44-1.07v-2.91c0-1.29,1.04-2.33,2.33-2.33s2.33,1.04,2.33,2.33v2.91c0,1.63-.66,3.22-1.81,4.37l-10.41,10.41c-1.01,1.01-1.57,2.36-1.57,3.79,0,.61.1,1.21.3,1.77l10.31-10.31c1.17-1.17,2.71-1.81,4.35-1.81h11.89c.4,0,.78-.16,1.07-.44.29-.29.44-.67.44-1.08v-1.92c0-.62.24-1.21.68-1.65.44-.44,1.03-.68,1.65-.68h7.69c1.29,0,2.33,1.05,2.33,2.33s-1.04,2.33-2.33,2.33h-5.37c-.1,1.49-.72,2.88-1.79,3.95-1.17,1.17-2.72,1.81-4.37,1.81h-11.89c-.4,0-.77.16-1.06.44l-12.33,12.33c-.46.45-1.05.68-1.65.68"/>
      </g>
      <g>
        <path class="cls-3" d="M13.25,119.76H4.32l-1.85,4.2H0l7.61-16.8h2.38l7.63,16.8h-2.52l-1.85-4.2ZM12.41,117.84l-3.62-8.23-3.62,8.23h7.25Z"/>
        <path class="cls-3" d="M31.41,106.15v17.81h-2.21v-2.02c-.51.7-1.16,1.24-1.94,1.61-.78.37-1.65.55-2.59.55-1.23,0-2.34-.27-3.31-.82s-1.74-1.31-2.29-2.29c-.55-.98-.83-2.12-.83-3.4s.28-2.41.83-3.38c.55-.98,1.32-1.74,2.29-2.28s2.08-.82,3.31-.82c.91,0,1.75.17,2.52.52.77.34,1.41.85,1.92,1.52v-7.01h2.3ZM27.04,121.53c.66-.38,1.17-.9,1.54-1.58.37-.68.55-1.46.55-2.34s-.18-1.66-.55-2.34c-.37-.68-.88-1.2-1.54-1.57-.66-.37-1.38-.55-2.18-.55s-1.55.18-2.2.55c-.65.37-1.16.89-1.54,1.57-.38.68-.56,1.46-.56,2.34s.19,1.66.56,2.34c.38.68.89,1.21,1.54,1.58.65.38,1.38.56,2.2.56s1.53-.19,2.18-.56Z"/>
        <path class="cls-3" d="M46.93,118.37h-10.32c.14,1.12.64,2.02,1.48,2.7.84.68,1.88,1.02,3.13,1.02,1.52,0,2.74-.51,3.67-1.54l1.27,1.49c-.58.67-1.29,1.18-2.15,1.54-.86.35-1.81.53-2.87.53-1.34,0-2.54-.28-3.58-.83-1.04-.55-1.84-1.32-2.41-2.32-.57-.99-.85-2.11-.85-3.36s.28-2.34.83-3.34,1.31-1.76,2.28-2.32c.97-.55,2.06-.83,3.28-.83s2.3.28,3.25.83c.95.55,1.7,1.32,2.23,2.32s.8,2.13.8,3.41c0,.18-.02.41-.05.7ZM37.92,114.07c-.74.67-1.18,1.55-1.31,2.64h8.16c-.13-1.07-.56-1.95-1.31-2.63-.74-.68-1.67-1.02-2.77-1.02s-2.03.34-2.77,1.01Z"/>
        <path class="cls-3" d="M61.63,111.24v12.72h-2.18v-1.92c-.46.66-1.08,1.16-1.84,1.52s-1.59.54-2.48.54c-1.7,0-3.03-.47-4.01-1.4-.98-.94-1.46-2.32-1.46-4.14v-7.32h2.3v7.06c0,1.23.3,2.16.89,2.8.59.63,1.44.95,2.54.95,1.22,0,2.18-.37,2.88-1.1s1.06-1.78,1.06-3.12v-6.58h2.3Z"/>
        <path class="cls-3" d="M77.73,106.15v17.81h-2.21v-2.02c-.51.7-1.16,1.24-1.94,1.61-.78.37-1.65.55-2.59.55-1.23,0-2.34-.27-3.31-.82s-1.74-1.31-2.29-2.29c-.55-.98-.83-2.12-.83-3.4s.28-2.41.83-3.38c.55-.98,1.32-1.74,2.29-2.28s2.08-.82,3.31-.82c.91,0,1.75.17,2.52.52.77.34,1.41.85,1.92,1.52v-7.01h2.3ZM73.36,121.53c.66-.38,1.17-.9,1.54-1.58.37-.68.55-1.46.55-2.34s-.18-1.66-.55-2.34c-.37-.68-.88-1.2-1.54-1.57-.66-.37-1.38-.55-2.18-.55s-1.55.18-2.2.55c-.65.37-1.16.89-1.54,1.57-.38.68-.56,1.46-.56,2.34s.19,1.66.56,2.34c.38.68.89,1.21,1.54,1.58.65.38,1.38.56,2.2.56s1.53-.19,2.18-.56Z"/>
        <path class="cls-3" d="M83.84,123.27c-1.01-.56-1.8-1.33-2.36-2.32-.57-.98-.85-2.1-.85-3.35s.28-2.36.85-3.35c.57-.98,1.36-1.75,2.36-2.3,1.01-.55,2.14-.83,3.41-.83s2.4.28,3.4.83c1,.55,1.78,1.32,2.35,2.3.57.98.85,2.1.85,3.35s-.28,2.36-.85,3.35c-.57.98-1.35,1.76-2.35,2.32s-2.13.84-3.4.84-2.4-.28-3.41-.84ZM89.44,121.53c.65-.38,1.16-.9,1.52-1.58.37-.68.55-1.46.55-2.34s-.18-1.66-.55-2.34c-.37-.68-.88-1.2-1.52-1.57-.65-.37-1.38-.55-2.2-.55s-1.55.18-2.2.55c-.65.37-1.16.89-1.54,1.57-.38.68-.56,1.46-.56,2.34s.19,1.66.56,2.34c.38.68.89,1.21,1.54,1.58.65.38,1.38.56,2.2.56s1.55-.19,2.2-.56Z"/>
        <path class="cls-3" d="M97.62,123.69c-.96-.28-1.71-.64-2.26-1.07l.96-1.82c.56.4,1.24.72,2.04.96s1.61.36,2.42.36c2.02,0,3.02-.58,3.02-1.73,0-.38-.14-.69-.41-.91-.27-.22-.61-.39-1.02-.49-.41-.1-.99-.22-1.74-.35-1.02-.16-1.86-.34-2.51-.55-.65-.21-1.2-.56-1.67-1.06-.46-.5-.7-1.19-.7-2.09,0-1.15.48-2.08,1.44-2.77.96-.7,2.25-1.04,3.86-1.04.85,0,1.7.1,2.54.31s1.54.49,2.09.84l-.98,1.82c-1.04-.67-2.26-1.01-3.67-1.01-.98,0-1.72.16-2.23.48-.51.32-.77.74-.77,1.27,0,.42.14.74.43.98.29.24.64.42,1.07.53.42.11,1.02.24,1.79.38,1.02.18,1.85.36,2.48.56.63.2,1.17.54,1.62,1.02.45.48.67,1.15.67,2.02,0,1.15-.49,2.07-1.48,2.75-.98.68-2.32,1.02-4.02,1.02-1.04,0-2.04-.14-3-.42Z"/>
        <path class="cls-3" d="M118.04,110.14v1.1h3.7v1.9h-3.65v10.82h-2.3v-10.82h-2.16v-1.9h2.16v-1.13c0-1.26.37-2.26,1.1-3,.74-.74,1.77-1.1,3.1-1.1.51,0,.99.06,1.44.19s.83.31,1.15.55l-.7,1.75c-.53-.4-1.12-.6-1.78-.6-1.38,0-2.06.74-2.06,2.23ZM125.88,108.36c-.3-.29-.44-.64-.44-1.06s.15-.77.44-1.07c.3-.3.67-.44,1.12-.44s.82.14,1.12.42c.29.28.44.63.44,1.04s-.15.8-.44,1.09c-.3.3-.67.44-1.12.44s-.82-.14-1.12-.43ZM125.84,111.24h2.3v12.72h-2.3v-12.72Z"/>
        <path class="cls-3" d="M133.09,123.69c-.96-.28-1.71-.64-2.26-1.07l.96-1.82c.56.4,1.24.72,2.04.96s1.61.36,2.42.36c2.02,0,3.02-.58,3.02-1.73,0-.38-.14-.69-.41-.91-.27-.22-.61-.39-1.02-.49-.41-.1-.99-.22-1.74-.35-1.02-.16-1.86-.34-2.51-.55-.65-.21-1.2-.56-1.67-1.06-.46-.5-.7-1.19-.7-2.09,0-1.15.48-2.08,1.44-2.77.96-.7,2.25-1.04,3.86-1.04.85,0,1.7.1,2.54.31s1.54.49,2.09.84l-.98,1.82c-1.04-.67-2.26-1.01-3.67-1.01-.98,0-1.72.16-2.23.48-.51.32-.77.74-.77,1.27,0,.42.14.74.43.98.29.24.64.42,1.07.53.42.11,1.02.24,1.79.38,1.02.18,1.85.36,2.48.56.63.2,1.17.54,1.62,1.02.45.48.67,1.15.67,2.02,0,1.15-.49,2.07-1.48,2.75-.98.68-2.32,1.02-4.02,1.02-1.04,0-2.04-.14-3-.42Z"/>
        <path class="cls-3" d="M146.5,123.27c-1.02-.56-1.81-1.33-2.39-2.32-.58-.98-.86-2.1-.86-3.35s.29-2.36.86-3.35,1.37-1.75,2.39-2.3c1.02-.55,2.17-.83,3.47-.83,1.15,0,2.18.23,3.08.7.9.46,1.6,1.14,2.1,2.02l-1.75,1.13c-.4-.61-.9-1.06-1.49-1.37-.59-.3-1.25-.46-1.97-.46-.83,0-1.58.18-2.24.55-.66.37-1.18.89-1.56,1.57-.38.68-.56,1.46-.56,2.34s.19,1.68.56,2.36c.38.68.9,1.2,1.56,1.57.66.37,1.41.55,2.24.55.72,0,1.38-.15,1.97-.46.59-.3,1.09-.76,1.49-1.37l1.75,1.1c-.5.88-1.2,1.56-2.1,2.03-.9.47-1.93.71-3.08.71-1.3,0-2.45-.28-3.47-.84Z"/>
        <path class="cls-3" d="M166.7,112.42c.94.86,1.4,2.15,1.4,3.86v7.68h-2.18v-1.68c-.38.59-.93,1.04-1.64,1.36-.71.31-1.56.47-2.53.47-1.42,0-2.56-.34-3.42-1.03-.86-.69-1.28-1.59-1.28-2.71s.41-2.02,1.22-2.7c.82-.68,2.11-1.02,3.89-1.02h3.65v-.46c0-.99-.29-1.75-.86-2.28-.58-.53-1.42-.79-2.54-.79-.75,0-1.49.12-2.21.37-.72.25-1.33.58-1.82,1l-.96-1.73c.66-.53,1.44-.93,2.35-1.21.91-.28,1.88-.42,2.9-.42,1.76,0,3.11.43,4.04,1.3ZM164.41,121.74c.64-.39,1.1-.95,1.39-1.67v-1.78h-3.55c-1.95,0-2.93.66-2.93,1.97,0,.64.25,1.14.74,1.51.5.37,1.18.55,2.06.55s1.64-.2,2.28-.59Z"/>
        <path class="cls-3" d="M171.88,106.15h2.3v17.81h-2.3v-17.81Z"/>
        <path class="cls-3" d="M189.75,118.37h-10.32c.14,1.12.64,2.02,1.48,2.7.84.68,1.88,1.02,3.13,1.02,1.52,0,2.74-.51,3.67-1.54l1.27,1.49c-.58.67-1.29,1.18-2.15,1.54-.86.35-1.81.53-2.87.53-1.34,0-2.54-.28-3.58-.83-1.04-.55-1.84-1.32-2.41-2.32-.57-.99-.85-2.11-.85-3.36s.28-2.34.83-3.34c.55-.99,1.31-1.76,2.28-2.32.97-.55,2.06-.83,3.28-.83s2.3.28,3.25.83c.95.55,1.7,1.32,2.23,2.32s.8,2.13.8,3.41c0,.18-.02.41-.05.7ZM180.73,114.07c-.74.67-1.18,1.55-1.31,2.64h8.16c-.13-1.07-.56-1.95-1.31-2.63-.74-.68-1.67-1.02-2.77-1.02s-2.03.34-2.77,1.01Z"/>
        <path class="cls-3" d="M193.57,123.69c-.96-.28-1.71-.64-2.26-1.07l.96-1.82c.56.4,1.24.72,2.04.96.8.24,1.61.36,2.42.36,2.02,0,3.02-.58,3.02-1.73,0-.38-.14-.69-.41-.91-.27-.22-.61-.39-1.02-.49s-.99-.22-1.74-.35c-1.02-.16-1.86-.34-2.51-.55-.65-.21-1.2-.56-1.67-1.06-.46-.5-.7-1.19-.7-2.09,0-1.15.48-2.08,1.44-2.77.96-.7,2.25-1.04,3.86-1.04.85,0,1.7.1,2.54.31.85.21,1.54.49,2.09.84l-.98,1.82c-1.04-.67-2.26-1.01-3.67-1.01-.98,0-1.72.16-2.23.48-.51.32-.77.74-.77,1.27,0,.42.14.74.43.98.29.24.64.42,1.07.53s1.02.24,1.79.38c1.02.18,1.85.36,2.48.56.63.2,1.17.54,1.62,1.02.45.48.67,1.15.67,2.02,0,1.15-.49,2.07-1.48,2.75-.98.68-2.32,1.02-4.02,1.02-1.04,0-2.04-.14-3-.42Z"/>
        <path class="cls-4" d="M9.05,148.3h-2.59v4.46H1.7v-16.8h7.68c1.52,0,2.84.25,3.96.76s1.98,1.22,2.59,2.16c.61.94.91,2.04.91,3.3s-.28,2.28-.85,3.18c-.57.9-1.38,1.61-2.44,2.12l3.62,5.28h-5.09l-3.05-4.46ZM11.3,140.35c-.5-.43-1.23-.65-2.21-.65h-2.64v4.92h2.64c.98,0,1.71-.21,2.21-.64.5-.42.74-1.03.74-1.81s-.25-1.39-.74-1.82Z"/>
        <path class="cls-4" d="M32.33,147.41h-9.46c.19.67.56,1.19,1.12,1.55.55.36,1.24.54,2.08.54.62,0,1.16-.09,1.62-.26s.92-.46,1.38-.86l2.4,2.5c-1.26,1.41-3.11,2.11-5.54,2.11-1.52,0-2.86-.29-4.01-.86-1.15-.58-2.04-1.38-2.68-2.4-.63-1.02-.95-2.18-.95-3.48s.31-2.43.92-3.44c.62-1.02,1.47-1.81,2.56-2.39,1.09-.58,2.31-.86,3.67-.86s2.47.27,3.53.8,1.89,1.31,2.51,2.33.92,2.22.92,3.61c0,.03-.02.41-.07,1.13ZM23.7,143.38c-.47.4-.77.94-.9,1.63h5.33c-.13-.69-.43-1.23-.9-1.63s-1.06-.6-1.76-.6-1.29.2-1.76.6Z"/>
        <path class="cls-4" d="M48.41,139.75v10.63c0,2.42-.66,4.23-1.97,5.44-1.31,1.21-3.2,1.81-5.66,1.81-1.28,0-2.48-.14-3.6-.43s-2.07-.71-2.86-1.27l1.66-3.19c.53.43,1.2.77,2,1.02.81.25,1.6.37,2.39.37,1.2,0,2.08-.26,2.64-.79.56-.53.84-1.31.84-2.35v-.43c-.88,1.02-2.17,1.54-3.86,1.54-1.15,0-2.22-.26-3.19-.78-.98-.52-1.75-1.26-2.33-2.21-.58-.95-.86-2.05-.86-3.3s.29-2.32.86-3.28,1.35-1.69,2.33-2.21c.98-.52,2.04-.78,3.19-.78,1.86,0,3.22.6,4.08,1.8v-1.58h4.34ZM43.09,147.72c.54-.5.8-1.14.8-1.92s-.26-1.42-.79-1.91c-.53-.49-1.21-.73-2.04-.73s-1.52.24-2.05.73c-.54.49-.8,1.12-.8,1.91s.27,1.42.82,1.92c.54.5,1.22.74,2.04.74s1.49-.25,2.03-.74Z"/>
        <path class="cls-4" d="M64.91,139.75v13.01h-4.34v-1.39c-.48.53-1.06.93-1.73,1.2-.67.27-1.38.41-2.14.41-1.68,0-3.02-.5-4.02-1.49-1-.99-1.5-2.48-1.5-4.46v-7.27h4.56v6.53c0,.98.18,1.69.55,2.14.37.45.9.67,1.61.67s1.31-.25,1.76-.76c.46-.5.68-1.28.68-2.32v-6.26h4.56Z"/>
        <path class="cls-4" d="M67.75,134.95h4.56v17.81h-4.56v-17.81Z"/>
        <path class="cls-4" d="M85.67,141.01c1.14.98,1.7,2.49,1.7,4.52v7.22h-4.25v-1.68c-.66,1.26-1.94,1.9-3.84,1.9-1.01,0-1.88-.18-2.62-.53-.74-.35-1.29-.83-1.67-1.43-.38-.6-.56-1.28-.56-2.05,0-1.23.47-2.19,1.42-2.87.94-.68,2.4-1.02,4.37-1.02h2.59c-.08-1.38-1-2.06-2.76-2.06-.62,0-1.26.1-1.9.3s-1.18.48-1.63.83l-1.54-3.1c.72-.48,1.6-.85,2.63-1.12,1.03-.26,2.07-.4,3.11-.4,2.16,0,3.81.49,4.94,1.48ZM81.95,149.71c.4-.26.69-.63.86-1.13v-1.13h-1.97c-1.33,0-1.99.44-1.99,1.32,0,.4.15.72.46.96.3.24.72.36,1.25.36s.99-.13,1.39-.38Z"/>
        <path class="cls-4" d="M96.29,139.98c.74-.3,1.6-.44,2.56-.44v4.1c-.42-.05-.76-.07-1.03-.07-.98,0-1.74.26-2.29.79-.55.53-.83,1.34-.83,2.42v5.98h-4.56v-13.01h4.34v1.56c.46-.59,1.07-1.04,1.81-1.33Z"/>
        <path class="cls-4" d="M100.63,137.62c-.51-.46-.77-1.04-.77-1.73s.26-1.26.77-1.73c.51-.46,1.18-.7,2.02-.7s1.5.22,2.02.66c.51.44.77,1,.77,1.69s-.26,1.32-.77,1.79c-.51.47-1.18.71-2.02.71s-1.5-.23-2.02-.7ZM100.37,139.75h4.56v13.01h-4.56v-13.01Z"/>
        <path class="cls-4" d="M119.11,149.35v3.41h-12v-2.69l6.02-6.94h-5.86v-3.38h11.59v2.66l-6.02,6.94h6.26Z"/>
        <path class="cls-4" d="M131.61,141.01c1.14.98,1.7,2.49,1.7,4.52v7.22h-4.25v-1.68c-.66,1.26-1.94,1.9-3.84,1.9-1.01,0-1.88-.18-2.62-.53-.74-.35-1.29-.83-1.67-1.43-.38-.6-.56-1.28-.56-2.05,0-1.23.47-2.19,1.42-2.87.94-.68,2.4-1.02,4.37-1.02h2.59c-.08-1.38-1-2.06-2.76-2.06-.62,0-1.26.1-1.9.3s-1.18.48-1.63.83l-1.54-3.1c.72-.48,1.6-.85,2.63-1.12,1.03-.26,2.07-.4,3.11-.4,2.16,0,3.81.49,4.94,1.48ZM127.89,149.71c.4-.26.69-.63.86-1.13v-1.13h-1.97c-1.33,0-1.99.44-1.99,1.32,0,.4.15.72.46.96.3.24.72.36,1.25.36s.99-.13,1.39-.38Z"/>
        <path class="cls-4" d="M138.84,152.11c-1.14-.58-2.02-1.38-2.65-2.4s-.95-2.18-.95-3.48.32-2.45.95-3.47c.63-1.02,1.52-1.81,2.65-2.38s2.42-.85,3.86-.85,2.74.32,3.82.95c1.07.63,1.83,1.51,2.28,2.63l-3.53,1.8c-.59-1.17-1.46-1.75-2.59-1.75-.82,0-1.49.27-2.03.82-.54.54-.8,1.3-.8,2.26s.27,1.74.8,2.29c.54.55,1.21.83,2.03.83,1.14,0,2-.58,2.59-1.75l3.53,1.8c-.45,1.12-1.21,2-2.28,2.63-1.07.63-2.34.95-3.82.95s-2.73-.29-3.86-.86Z"/>
        <path class="cls-4" d="M150.8,137.62c-.51-.46-.77-1.04-.77-1.73s.26-1.26.77-1.73c.51-.46,1.18-.7,2.02-.7s1.5.22,2.02.66c.51.44.77,1,.77,1.69s-.26,1.32-.77,1.79c-.51.47-1.18.71-2.02.71s-1.5-.23-2.02-.7ZM150.54,139.75h4.56v13.01h-4.56v-13.01Z"/>
        <path class="cls-4" d="M160.67,152.11c-1.12-.58-2-1.38-2.63-2.4-.63-1.02-.95-2.18-.95-3.48s.32-2.43.95-3.46c.63-1.02,1.5-1.82,2.62-2.39,1.11-.57,2.37-.85,3.78-.85s2.67.28,3.79.85c1.12.57,1.99,1.36,2.62,2.38.62,1.02.94,2.17.94,3.47s-.31,2.46-.94,3.48-1.5,1.82-2.62,2.4-2.38.86-3.79.86-2.65-.29-3.77-.86ZM166.4,148.53c.51-.55.77-1.32.77-2.29s-.26-1.71-.77-2.26c-.51-.54-1.17-.82-1.97-.82s-1.46.27-1.97.82c-.51.54-.77,1.3-.77,2.26s.26,1.74.77,2.29c.51.55,1.17.83,1.97.83s1.46-.28,1.97-.83ZM165.25,134.55h4.56l-4.51,3.65h-3.26l3.22-3.65Z"/>
        <path class="cls-4" d="M186.2,140.98c.98.96,1.48,2.41,1.48,4.34v7.44h-4.56v-6.7c0-1.78-.71-2.66-2.14-2.66-.78,0-1.41.26-1.88.77s-.71,1.28-.71,2.3v6.29h-4.56v-13.01h4.34v1.42c.51-.53,1.12-.93,1.82-1.21.7-.28,1.47-.42,2.3-.42,1.62,0,2.92.48,3.9,1.44Z"/>
        <path class="cls-4" d="M6.46,169.04h3.1v3.41h-2.98v9.12H2.02v-9.12H.12v-3.41h1.9v-.34c0-1.58.48-2.84,1.43-3.77s2.28-1.39,4-1.39c.58,0,1.14.06,1.68.17.54.11.99.28,1.34.5l-1.13,3.22c-.45-.26-.9-.38-1.37-.38s-.85.14-1.12.43-.4.71-.4,1.27v.29ZM13.42,166.42c-.51-.46-.77-1.04-.77-1.73s.26-1.26.77-1.73c.51-.46,1.18-.7,2.02-.7s1.5.22,2.02.66c.51.44.77,1,.77,1.69s-.26,1.32-.77,1.79c-.51.47-1.18.71-2.02.71s-1.5-.23-2.02-.7ZM13.15,168.56h4.56v13.01h-4.56v-13.01Z"/>
        <path class="cls-4" d="M22.29,181.41c-1.06-.25-1.9-.57-2.54-.97l1.37-3.12c.59.37,1.3.66,2.11.88.82.22,1.62.32,2.42.32.74,0,1.26-.08,1.57-.23.31-.15.47-.37.47-.66s-.19-.49-.56-.61c-.38-.12-.97-.24-1.79-.35-1.04-.13-1.92-.3-2.65-.5s-1.36-.59-1.88-1.15-.79-1.34-.79-2.35c0-.83.25-1.57.74-2.22.5-.65,1.22-1.16,2.17-1.54.95-.38,2.09-.56,3.42-.56.94,0,1.88.1,2.81.29s1.7.46,2.33.82l-1.37,3.1c-1.15-.64-2.4-.96-3.74-.96-.72,0-1.25.08-1.58.25s-.5.39-.5.66c0,.3.18.52.55.64.37.12.98.24,1.82.37,1.07.16,1.96.34,2.66.55.7.21,1.32.59,1.84,1.14.52.55.78,1.32.78,2.32,0,.82-.25,1.55-.74,2.2s-1.23,1.16-2.2,1.52c-.97.37-2.13.55-3.49.55-1.09,0-2.16-.12-3.22-.37Z"/>
        <path class="cls-4" d="M36.6,180.92c-1.14-.58-2.02-1.38-2.65-2.4-.63-1.02-.95-2.18-.95-3.48s.32-2.45.95-3.47c.63-1.02,1.52-1.81,2.65-2.38,1.14-.57,2.42-.85,3.86-.85s2.74.32,3.82.95c1.07.63,1.83,1.51,2.28,2.63l-3.53,1.8c-.59-1.17-1.46-1.75-2.59-1.75-.82,0-1.49.27-2.03.82-.54.54-.8,1.3-.8,2.26s.27,1.74.8,2.29c.54.55,1.21.83,2.03.83,1.14,0,2-.58,2.59-1.75l3.53,1.8c-.45,1.12-1.21,2-2.28,2.63-1.07.63-2.34.95-3.82.95s-2.73-.29-3.86-.86Z"/>
        <path class="cls-4" d="M58.85,169.82c1.14.98,1.7,2.49,1.7,4.52v7.22h-4.25v-1.68c-.66,1.26-1.94,1.9-3.84,1.9-1.01,0-1.88-.18-2.62-.53-.74-.35-1.29-.83-1.67-1.43-.38-.6-.56-1.28-.56-2.05,0-1.23.47-2.19,1.42-2.87.94-.68,2.4-1.02,4.37-1.02h2.59c-.08-1.38-1-2.06-2.76-2.06-.62,0-1.26.1-1.9.3s-1.18.48-1.63.83l-1.54-3.1c.72-.48,1.6-.85,2.63-1.12,1.03-.26,2.07-.4,3.11-.4,2.16,0,3.81.49,4.94,1.48ZM55.13,178.52c.4-.26.69-.63.86-1.13v-1.13h-1.97c-1.33,0-1.99.44-1.99,1.32,0,.4.15.72.46.96.3.24.72.36,1.25.36s.99-.13,1.39-.38Z"/>
        <path class="cls-4" d="M63.33,163.75h4.56v17.81h-4.56v-17.81Z"/>
      </g>
    </g>
  </g>
</svg>