<?xml version="1.0" encoding="UTF-8"?>
<svg id="Capa_2" data-name="Capa 2" xmlns="http://www.w3.org/2000/svg" viewBox="0 0 145.51 149.47">
  <defs>
    <style>
      .cls-1 {
        fill: #497f6a;
      }

      .cls-2 {
        fill: #6d9988;
      }

      .cls-3 {
        fill: #3b6b5f;
      }

      .cls-4 {
        fill: #265b4d;
      }
    </style>
  </defs>
  <g id="TRAZO">
    <g>
      <path class="cls-2" d="M25.24,14.27c5.6,5.83,10.59,13.72,13.17,24.33h3.01l-7.34-13.56-7.34-13.56-1.51,2.78ZM0,8.24v43.6c0,1.95.17,3.54.52,4.76.34,1.22,1.08,2.17,2.2,2.85,1.13.67,2.81,1.01,5.03,1.01h3.21v.1s0,0,0,0l-1.51,11.15c-.06,1.59.97,1.22,1.25.94.77-.77,2.14-2.07,3.71-3.55l9.35-9.31c7.8-.09,14.93-2.65,16.26-3.16.07-.05.15-.1.22-.14.13-6.69-.55-12.63-1.83-17.9H12.07l7.34-13.56,5.83-10.78C18.13,6.87,10.05,2.81,4.73.74,1.94,2.06,0,4.99,0,8.24"/>
      <path class="cls-3" d="M3.3,59.75c1.09.48,2.58.71,4.46.71h3.21l-1.45,10.65c-.36,2.27.88,1.85,1.18,1.54,2.73-2.73,13.02-12.19,13.02-12.19,2.78,0,5.27-.18,7.49-.54,2.21-.36,4.28-.97,6.21-1.86,1.92-.88,3.7-2.05,5.32-3.51,2.06-1.9,3.75-4.05,5.07-6.45,1.32-2.41,2.29-5.11,2.93-8.11.63-3,.95-6.31.95-9.94,0-2.78-.2-5.38-.6-7.81-4.94,7.38-20.2,27.09-47.78,37.49"/>
      <path class="cls-1" d="M8.03,0c-1.52,0-2.93.45-4.14,1.21,35.11,17.88,36.31,53.66,36.35,55.29.87-.58,1.7-1.22,2.49-1.93,2.06-1.9,3.75-4.05,5.07-6.45,1.32-2.41,2.29-5.11,2.93-8.11.63-3,.95-6.31.95-9.94,0-11-3.15-19.19-9.45-24.58-2.42-2.12-5.11-3.56-8.08-4.33-2.97-.77-6.53-1.16-10.68-1.16h-15.44Z"/>
      <g>
        <path class="cls-1" d="M2.89,103.07h7.17c1.8,0,3.39.36,4.79,1.07,1.39.71,2.47,1.71,3.25,3,.77,1.29,1.15,2.77,1.15,4.44s-.39,3.15-1.15,4.44c-.77,1.29-1.85,2.29-3.25,3-1.39.71-2.99,1.07-4.79,1.07H2.89v-17.01ZM9.92,117.97c1.38,0,2.59-.27,3.63-.8,1.05-.53,1.85-1.28,2.42-2.25.57-.96.85-2.08.85-3.34s-.28-2.38-.85-3.34c-.57-.96-1.37-1.71-2.42-2.25-1.04-.53-2.26-.8-3.63-.8h-4.59v12.78h4.59Z"/>
        <path class="cls-1" d="M34.22,114.42h-10.45c.15,1.13.64,2.05,1.49,2.73.85.69,1.91,1.03,3.17,1.03,1.54,0,2.78-.52,3.72-1.56l1.29,1.51c-.58.68-1.31,1.2-2.18,1.56-.87.36-1.83.53-2.9.53-1.36,0-2.57-.28-3.62-.84-1.05-.56-1.87-1.34-2.44-2.35-.58-1-.86-2.14-.86-3.4s.28-2.37.84-3.38c.56-1,1.33-1.79,2.31-2.35s2.09-.84,3.32-.84,2.33.28,3.29.84c.96.56,1.72,1.34,2.26,2.35.54,1,.81,2.16.81,3.45,0,.18-.02.41-.05.7ZM25.09,110.07c-.75.68-1.2,1.57-1.32,2.67h8.26c-.13-1.09-.57-1.97-1.32-2.66-.75-.69-1.69-1.03-2.81-1.03s-2.05.34-2.81,1.02Z"/>
        <path class="cls-1" d="M39.6,119.38c-1.03-.57-1.83-1.35-2.42-2.35-.58-1-.88-2.13-.88-3.39s.29-2.39.88-3.39c.58-1,1.39-1.77,2.42-2.33,1.03-.56,2.2-.84,3.51-.84,1.17,0,2.21.24,3.12.7.92.47,1.62,1.15,2.13,2.04l-1.77,1.14c-.41-.62-.91-1.08-1.51-1.39-.6-.31-1.26-.46-1.99-.46-.84,0-1.6.19-2.27.56-.67.37-1.2.9-1.58,1.59-.38.69-.57,1.48-.57,2.37s.19,1.71.57,2.39c.38.69.91,1.22,1.58,1.59.67.37,1.43.56,2.27.56.73,0,1.39-.15,1.99-.46.6-.31,1.1-.77,1.51-1.39l1.77,1.12c-.5.89-1.21,1.58-2.13,2.05-.92.48-1.96.72-3.12.72-1.31,0-2.48-.28-3.51-.85Z"/>
        <path class="cls-1" d="M51.38,102.05h2.33v18.03h-2.33v-18.03Z"/>
        <path class="cls-1" d="M66.95,108.4c.95.87,1.42,2.18,1.42,3.91v7.78h-2.21v-1.7c-.39.6-.94,1.06-1.66,1.37-.72.32-1.58.47-2.56.47-1.44,0-2.6-.35-3.46-1.05-.87-.7-1.3-1.61-1.3-2.75s.41-2.05,1.24-2.73c.83-.69,2.14-1.03,3.94-1.03h3.69v-.46c0-1-.29-1.77-.88-2.31-.58-.53-1.44-.8-2.58-.8-.76,0-1.51.13-2.24.38-.73.25-1.34.59-1.85,1.01l-.97-1.75c.67-.53,1.46-.94,2.38-1.23.92-.28,1.9-.43,2.94-.43,1.78,0,3.15.44,4.1,1.31ZM64.62,117.84c.65-.4,1.12-.96,1.41-1.69v-1.8h-3.6c-1.98,0-2.96.66-2.96,1.99,0,.65.25,1.16.75,1.53.5.37,1.2.56,2.09.56s1.66-.2,2.31-.6Z"/>
        <path class="cls-1" d="M76.73,107.67c.79-.39,1.76-.58,2.89-.58v2.26c-.13-.02-.31-.02-.53-.02-1.26,0-2.26.38-2.98,1.13s-1.08,1.83-1.08,3.22v6.42h-2.33v-12.88h2.24v2.16c.41-.75,1-1.31,1.8-1.7Z"/>
        <path class="cls-1" d="M91.45,108.4c.95.87,1.42,2.18,1.42,3.91v7.78h-2.21v-1.7c-.39.6-.94,1.06-1.67,1.37s-1.58.47-2.56.47c-1.44,0-2.6-.35-3.46-1.05-.87-.7-1.3-1.61-1.3-2.75s.41-2.05,1.24-2.73c.83-.69,2.14-1.03,3.94-1.03h3.69v-.46c0-1-.29-1.77-.88-2.31-.58-.53-1.44-.8-2.58-.8-.76,0-1.51.13-2.24.38-.73.25-1.34.59-1.85,1.01l-.97-1.75c.66-.53,1.46-.94,2.38-1.23.92-.28,1.9-.43,2.94-.43,1.78,0,3.15.44,4.1,1.31ZM89.12,117.84c.65-.4,1.12-.96,1.41-1.69v-1.8h-3.6c-1.98,0-2.96.66-2.96,1.99,0,.65.25,1.16.75,1.53.5.37,1.2.56,2.09.56s1.66-.2,2.31-.6Z"/>
        <path class="cls-1" d="M99.29,119.38c-1.03-.57-1.83-1.35-2.42-2.35-.58-1-.88-2.13-.88-3.39s.29-2.39.88-3.39c.58-1,1.39-1.77,2.42-2.33,1.03-.56,2.2-.84,3.51-.84,1.17,0,2.21.24,3.12.7.92.47,1.62,1.15,2.13,2.04l-1.77,1.14c-.41-.62-.91-1.08-1.51-1.39-.6-.31-1.26-.46-1.99-.46-.84,0-1.6.19-2.27.56-.67.37-1.2.9-1.58,1.59-.38.69-.57,1.48-.57,2.37s.19,1.71.57,2.39c.38.69.91,1.22,1.58,1.59.67.37,1.43.56,2.27.56.73,0,1.39-.15,1.99-.46.6-.31,1.1-.77,1.51-1.39l1.77,1.12c-.5.89-1.21,1.58-2.13,2.05-.92.48-1.96.72-3.12.72-1.31,0-2.48-.28-3.51-.85Z"/>
        <path class="cls-1" d="M111.11,104.29c-.3-.29-.45-.65-.45-1.07s.15-.78.45-1.08c.3-.3.68-.45,1.13-.45s.83.14,1.13.43c.3.28.45.64.45,1.06s-.15.81-.45,1.11c-.3.3-.68.45-1.13.45s-.83-.15-1.13-.44ZM111.07,107.21h2.33v12.88h-2.33v-12.88Z"/>
        <path class="cls-1" d="M119.92,119.38c-1.02-.57-1.82-1.35-2.39-2.35-.58-1-.86-2.13-.86-3.39s.29-2.39.86-3.39,1.37-1.77,2.39-2.33c1.02-.56,2.17-.84,3.45-.84s2.43.28,3.44.84c1.01.56,1.81,1.34,2.38,2.33.58,1,.86,2.13.86,3.39s-.29,2.39-.86,3.39c-.57,1-1.37,1.78-2.38,2.35-1.01.57-2.16.85-3.44.85s-2.43-.28-3.45-.85ZM125.59,117.62c.66-.38,1.17-.92,1.54-1.6.37-.69.56-1.48.56-2.37s-.19-1.68-.56-2.37c-.37-.69-.89-1.22-1.54-1.59-.66-.37-1.4-.56-2.22-.56s-1.57.19-2.22.56c-.66.37-1.17.9-1.55,1.59-.38.69-.57,1.48-.57,2.37s.19,1.68.57,2.37c.38.69.9,1.22,1.55,1.6.66.38,1.4.57,2.22.57s1.57-.19,2.22-.57ZM124.83,102.17h2.97l-4.08,3.16h-2.19l3.31-3.16Z"/>
        <path class="cls-1" d="M144.06,108.51c.96.95,1.45,2.34,1.45,4.17v7.41h-2.33v-7.15c0-1.25-.3-2.19-.9-2.82-.6-.63-1.46-.95-2.58-.95-1.26,0-2.26.37-2.99,1.11-.73.74-1.09,1.79-1.09,3.17v6.64h-2.33v-12.88h2.24v1.94c.47-.66,1.11-1.17,1.91-1.53.8-.36,1.71-.53,2.73-.53,1.64,0,2.94.47,3.9,1.42Z"/>
        <path class="cls-4" d="M13.44,145.95h-7.19l-1.34,3.31H0l7.51-17.01h4.74l7.53,17.01h-5.01l-1.34-3.31ZM12.03,142.4l-2.19-5.44-2.19,5.44h4.37Z"/>
        <path class="cls-4" d="M33.46,137.32c1,.97,1.49,2.44,1.49,4.4v7.53h-4.62v-6.78c0-1.8-.72-2.7-2.16-2.7-.79,0-1.43.26-1.91.78-.48.52-.72,1.3-.72,2.33v6.37h-4.62v-13.17h4.4v1.43c.52-.53,1.13-.94,1.85-1.23.71-.28,1.49-.43,2.33-.43,1.64,0,2.95.49,3.95,1.46Z"/>
        <path class="cls-4" d="M51.7,136.08v13.17h-4.4v-1.41c-.49.53-1.07.94-1.75,1.22-.68.28-1.4.41-2.16.41-1.7,0-3.06-.5-4.07-1.51-1.01-1-1.52-2.51-1.52-4.52v-7.36h4.62v6.61c0,.99.19,1.71.56,2.16.37.45.92.68,1.63.68s1.33-.26,1.79-.77c.46-.51.69-1.29.69-2.35v-6.34h4.62Z"/>
        <path class="cls-4" d="M65.28,137.36c1.15,1,1.73,2.52,1.73,4.58v7.32h-4.3v-1.7c-.66,1.28-1.96,1.92-3.89,1.92-1.02,0-1.9-.18-2.65-.53s-1.31-.84-1.69-1.45c-.38-.61-.57-1.3-.57-2.08,0-1.25.48-2.22,1.43-2.9.96-.69,2.43-1.03,4.42-1.03h2.62c-.08-1.39-1.01-2.09-2.79-2.09-.63,0-1.27.1-1.92.3-.65.2-1.2.48-1.65.84l-1.56-3.14c.73-.49,1.62-.86,2.66-1.13,1.04-.27,2.09-.4,3.15-.4,2.19,0,3.86.5,5.01,1.49ZM61.51,146.17c.41-.26.7-.64.88-1.14v-1.14h-1.99c-1.35,0-2.02.45-2.02,1.34,0,.41.15.73.46.97s.73.36,1.26.36,1-.13,1.41-.39Z"/>
        <path class="cls-4" d="M69.92,131.22h4.62v18.03h-4.62v-18.03Z"/>
      </g>
    </g>
  </g>
</svg>